<?xml version="1.0" standalone="no"?>
<svg version="1.0" xmlns="http://www.w3.org/2000/svg"
 width="387.000000pt" height="337.000000pt" viewBox="0 0 387.000000 337.000000"
 preserveAspectRatio="xMidYMid meet">
  <defs>
    <linearGradient id="goldGrad" x1="0.3" y1="0" x2="0.7" y2="1">
      <stop offset="0%" stop-color="#e2c56e"/>
      <stop offset="40%" stop-color="#d4ab4a"/>
      <stop offset="75%" stop-color="#c49a3a"/>
      <stop offset="100%" stop-color="#b08530"/>
    </linearGradient>
  </defs>

<g transform="translate(0.000000,337.000000) scale(0.100000,-0.100000)" stroke="none">

<!-- Gold shapes -->
<path d="M2589 2905 c-42 -85 -48 -145 -42 -376 5 -186 4 -211 -15 -287 -20 -78 -65 -183 -97 -226 -14 -18 -16 -17 -60 23 -24 22 -65 51 -90 63 -49 24 -55 33 -26 43 26 8 85 75 110 123 30 59 49 146 61 277 18 204 52 295 139 381 24 24 46 43 47 41 2 -1 -10 -29 -27 -62z" fill="url(#goldGrad)"/>
<path d="M1454 2511 c73 -120 194 -230 326 -296 29 -15 141 -56 247 -91 106 -35 213 -75 236 -89 157 -91 238 -272 209 -466 -15 -102 -50 -203 -101 -287 -45 -76 -97 -139 -86 -107 3 11 11 54 17 95 9 62 8 91 -5 165 -39 212 -180 398 -421 553 -48 31 -127 82 -175 113 -114 74 -180 135 -235 217 -63 95 -98 204 -103 322 l-4 95 29 -81 c16 -44 46 -109 66 -143z" fill="url(#goldGrad)"/>
<path d="M2110 2520 c68 -35 111 -108 112 -191 0 -57 -14 -84 -55 -109 -56 -35 -129 -21 -195 36 -53 45 -72 82 -74 137 -2 116 106 181 212 127z" fill="url(#goldGrad)"/>
<path d="M2215 1468 c35 -148 9 -299 -71 -415 -42 -61 -84 -98 -244 -213 -63 -46 -141 -106 -174 -134 -136 -118 -263 -321 -305 -486 l-19 -75 -3 55 c-7 96 9 236 36 318 58 173 156 289 363 430 201 137 290 232 343 367 19 50 23 79 24 172 l0 112 18 -34 c9 -19 24 -62 32 -97z" fill="url(#goldGrad)"/>
<path d="M2515 1363 c-9 -70 -56 -203 -91 -258 -96 -146 -190 -229 -414 -362 -178 -106 -267 -169 -344 -242 -67 -63 -65 -54 7 37 55 70 147 152 253 227 335 237 482 390 560 584 16 39 31 71 33 71 2 0 0 -26 -4 -57zz" fill="url(#goldGrad)"/>

<!-- White accent shapes -->
<path d="M1500 2170 c77 -77 121 -110 229 -175 224 -133 310 -233 326 -375 l6 -55 -24 62 c-41 107 -105 171 -262 264 -135 79 -206 132 -277 207 -69 73 -104 129 -137 217 -29 77 -26 80 12 10 20 -38 67 -95 127 -155z" fill="#ffffff"/>
<path d="M1964 1604 c45 -132 -16 -289 -149 -383 l-48 -34 51 73 c112 159 130 313 51 448 -30 52 -22 51 30 -5 29 -30 55 -72 65 -99z" fill="url(#goldGrad)"/>
<path d="M2089 1413 c-15 -81 -75 -189 -143 -257 -33 -34 -117 -100 -186 -146 -156 -105 -271 -217 -333 -325 -26 -44 -47 -77 -47 -74 0 18 44 128 72 182 51 95 142 184 296 288 169 115 258 202 308 304 20 41 38 75 39 75 1 0 -1 -21 -6 -47z" fill="#ffffff"/>
</g>
</svg>
